<svg width="100" height="100" viewBox="0 0 100 100" fill="none" xmlns="http://www.w3.org/2000/svg">
<rect width="100" height="100" rx="10" fill="#DC2908"/>
<path d="M65.1135 88.4819L68.6832 80.2453H71.9094L79.9335 54.7627L86.5627 60.6827L77.9001 88.4819H65.1135Z" fill="white"/>
<path d="M27.0057 80.2453H61.3189L58.0044 88.4819H20.9765L16.5734 74.0096L25.2424 74.4493L27.0057 80.2453Z" fill="white"/>
<path d="M49.4396 10.1875L60.8108 17.5682L53.6717 22.845L49.4562 20.0584L27.0272 35.0715L24.86 26.4486L49.4396 10.1875Z" fill="white"/>
<path d="M66.5476 21.3006L93.2036 39.2562L88.623 53.9903L82.032 47.6841L83.5751 42.7206L59.4085 26.4486L66.5476 21.3006Z" fill="white"/>
<path d="M15.5894 42.7209L23.0752 67.6325H14.5336L6 39.2559L19.3781 30.3037L21.7523 38.5969L15.5894 42.7209Z" fill="white"/>
<path d="M84.1407 55.7921C84.9856 55.7921 85.6705 55.1006 85.6705 54.2477C85.6705 53.3947 84.9856 52.7033 84.1407 52.7033C83.2958 52.7033 82.6108 53.3947 82.6108 54.2477C82.6108 55.1006 83.2958 55.7921 84.1407 55.7921Z" fill="white"/>
</svg>
