<svg width="143" height="31" viewBox="0 0 143 31" fill="none" xmlns="http://www.w3.org/2000/svg">
<g filter="url(#filter0_dii_1411_11)">
<path d="M23.4535 29.7542C23.0938 29.7542 22.8517 29.3857 22.9947 29.0555L23.8716 27.0305C23.9508 26.8476 24.1311 26.7292 24.3304 26.7292H24.8191C25.0374 26.7292 25.2305 26.5876 25.2961 26.3793L27.8979 18.1096C28.0069 17.7632 28.4373 17.6448 28.7081 17.8869L30.3233 19.3304C30.4693 19.461 30.5257 19.6648 30.4675 19.8519L27.4937 29.4028C27.4286 29.6118 27.2352 29.7542 27.0163 29.7542H23.4535Z" fill="white"/>
<path d="M8.60044 26.3745C8.66447 26.5851 8.8587 26.7291 9.07883 26.7291H20.5597C20.9138 26.7291 21.1557 27.087 21.0236 27.4156L20.2094 29.4405C20.1333 29.6299 19.9497 29.754 19.7455 29.754H6.86634C6.64622 29.754 6.45198 29.6101 6.38796 29.3994L5.08698 25.1198C4.98624 24.7884 5.2448 24.4575 5.59072 24.475L7.7103 24.5827C7.92082 24.5933 8.10202 24.7349 8.16333 24.9366L8.60044 26.3745Z" fill="white"/>
<path d="M16.6671 1.18103C16.8331 1.07111 17.0485 1.07017 17.2155 1.17863L20.5088 3.31797C20.8014 3.50803 20.8142 3.93175 20.5337 4.13924L18.7748 5.44038C18.6059 5.56535 18.3768 5.57135 18.2016 5.45541L17.2242 4.80878C17.056 4.69754 16.8375 4.69817 16.67 4.81038L9.30625 9.7434C9.01878 9.93597 8.62731 9.78537 8.54303 9.44978L8.00699 7.31524C7.95533 7.10954 8.03906 6.89364 8.2159 6.77655L16.6671 1.18103Z" fill="white"/>
<path d="M22.9356 5.28568C23.1055 5.16304 23.3339 5.15939 23.5077 5.27653L32.6917 11.468C32.8747 11.5914 32.9552 11.8201 32.8897 12.0309L31.5588 16.3154C31.4486 16.6701 31.0038 16.7851 30.7355 16.5282L29.124 14.985C28.9871 14.8539 28.9361 14.6566 28.9923 14.4756L29.3565 13.3033C29.4219 13.0925 29.3414 12.8637 29.1584 12.7404L21.1931 7.37276C20.9047 7.1784 20.8979 6.75622 21.1799 6.55268L22.9356 5.28568Z" fill="white"/>
<path d="M4.82577 12.7427C4.64337 12.8649 4.56198 13.0917 4.62511 13.3019L7.07256 21.4534C7.16889 21.7742 6.92866 22.0972 6.59368 22.0972H4.50333C4.2826 22.0972 4.08799 21.9525 4.02448 21.7411L1.1063 12.0295C1.04312 11.8192 1.1245 11.5923 1.30693 11.4701L5.33898 8.76981C5.62076 8.58111 6.00466 8.72169 6.09793 9.04774L6.68025 11.0834C6.73995 11.2922 6.65814 11.5156 6.47775 11.6364L4.82577 12.7427Z" fill="white"/>
<path d="M29.6743 17.7486C29.9843 17.7486 30.2357 17.4947 30.2357 17.1814C30.2357 16.8682 29.9843 16.6143 29.6743 16.6143C29.3643 16.6143 29.1129 16.8682 29.1129 17.1814C29.1129 17.4947 29.3643 17.7486 29.6743 17.7486Z" fill="white"/>
</g>
<path d="M46.817 8.716H52.291C53.073 8.716 53.8243 8.79267 54.545 8.946C55.281 9.09933 55.925 9.36 56.477 9.728C57.029 10.0807 57.466 10.5637 57.788 11.177C58.1253 11.775 58.294 12.5263 58.294 13.431C58.294 14.4583 58.1177 15.2863 57.765 15.915C57.4123 16.5437 56.937 17.0343 56.339 17.387C55.741 17.7243 55.0433 17.9543 54.246 18.077C53.464 18.1997 52.6437 18.261 51.785 18.261H49.715V25H46.817V8.716ZM51.463 15.777C51.877 15.777 52.3063 15.7617 52.751 15.731C53.1957 15.7003 53.602 15.6083 53.97 15.455C54.3533 15.3017 54.66 15.0717 54.89 14.765C55.1353 14.4583 55.258 14.029 55.258 13.477C55.258 12.971 55.1507 12.5723 54.936 12.281C54.7213 11.9743 54.4453 11.7443 54.108 11.591C53.7707 11.4223 53.395 11.315 52.981 11.269C52.567 11.223 52.1683 11.2 51.785 11.2H49.715V15.777H51.463ZM62.8325 20.446C62.9245 21.274 63.2465 21.918 63.7985 22.378C64.3505 22.838 65.0175 23.068 65.7995 23.068C66.4895 23.068 67.0645 22.93 67.5245 22.654C67.9999 22.3627 68.4139 22.0023 68.7665 21.573L70.7445 23.068C70.1005 23.8653 69.3799 24.4327 68.5825 24.77C67.7852 25.1073 66.9495 25.276 66.0755 25.276C65.2475 25.276 64.4655 25.138 63.7295 24.862C62.9935 24.586 62.3572 24.195 61.8205 23.689C61.2839 23.183 60.8545 22.5773 60.5325 21.872C60.2259 21.1513 60.0725 20.354 60.0725 19.48C60.0725 18.606 60.2259 17.8163 60.5325 17.111C60.8545 16.3903 61.2839 15.777 61.8205 15.271C62.3572 14.765 62.9935 14.374 63.7295 14.098C64.4655 13.822 65.2475 13.684 66.0755 13.684C66.8422 13.684 67.5399 13.822 68.1685 14.098C68.8125 14.3587 69.3569 14.742 69.8015 15.248C70.2615 15.754 70.6142 16.3827 70.8595 17.134C71.1202 17.87 71.2505 18.721 71.2505 19.687V20.446H62.8325ZM68.4905 18.376C68.4752 17.5633 68.2222 16.927 67.7315 16.467C67.2409 15.9917 66.5585 15.754 65.6845 15.754C64.8565 15.754 64.1972 15.9917 63.7065 16.467C63.2312 16.9423 62.9399 17.5787 62.8325 18.376H68.4905ZM73.8316 13.96H76.4536V15.731H76.4996C76.7602 15.179 77.1589 14.7037 77.6956 14.305C78.2322 13.891 78.9606 13.684 79.8806 13.684C80.6166 13.684 81.2376 13.8067 81.7436 14.052C82.2649 14.2973 82.6866 14.6193 83.0086 15.018C83.3306 15.4167 83.5606 15.8767 83.6986 16.398C83.8366 16.9193 83.9056 17.4637 83.9056 18.031V25H81.1456V19.411C81.1456 19.1043 81.1302 18.767 81.0996 18.399C81.0689 18.0157 80.9846 17.663 80.8466 17.341C80.7239 17.0037 80.5246 16.7277 80.2486 16.513C79.9726 16.283 79.5969 16.168 79.1216 16.168C78.6616 16.168 78.2706 16.2447 77.9486 16.398C77.6419 16.5513 77.3812 16.7583 77.1666 17.019C76.9672 17.2797 76.8216 17.5787 76.7296 17.916C76.6376 18.2533 76.5916 18.606 76.5916 18.974V25H73.8316V13.96ZM85.7506 16.306V13.96H88.0276V10.763H90.7876V13.96H93.8236V16.306H90.7876V21.136C90.7876 21.688 90.8873 22.125 91.0866 22.447C91.3013 22.769 91.7153 22.93 92.3286 22.93C92.5739 22.93 92.8423 22.907 93.1336 22.861C93.4249 22.7997 93.6549 22.7077 93.8236 22.585V24.908C93.5323 25.046 93.1719 25.138 92.7426 25.184C92.3286 25.2453 91.9606 25.276 91.6386 25.276C90.9026 25.276 90.2969 25.1917 89.8216 25.023C89.3616 24.8697 88.9936 24.632 88.7176 24.31C88.4569 23.9727 88.2729 23.5587 88.1656 23.068C88.0736 22.5773 88.0276 22.01 88.0276 21.366V16.306H85.7506ZM102.878 23.482H102.809C102.41 24.1107 101.904 24.5707 101.291 24.862C100.678 25.138 100.003 25.276 99.2671 25.276C98.7611 25.276 98.2627 25.207 97.7721 25.069C97.2967 24.931 96.8674 24.724 96.4841 24.448C96.1161 24.172 95.8171 23.827 95.5871 23.413C95.3571 22.999 95.2421 22.516 95.2421 21.964C95.2421 21.366 95.3494 20.86 95.5641 20.446C95.7787 20.0167 96.0624 19.664 96.4151 19.388C96.7831 19.0967 97.2047 18.8667 97.6801 18.698C98.1554 18.5293 98.6461 18.4067 99.1521 18.33C99.6734 18.238 100.195 18.1843 100.716 18.169C101.237 18.1383 101.728 18.123 102.188 18.123H102.878V17.824C102.878 17.134 102.64 16.6203 102.165 16.283C101.69 15.9303 101.084 15.754 100.348 15.754C99.7654 15.754 99.2211 15.8613 98.7151 16.076C98.2091 16.2753 97.7721 16.5513 97.4041 16.904L95.9551 15.455C96.5684 14.8263 97.2814 14.374 98.0941 14.098C98.9221 13.822 99.7731 13.684 100.647 13.684C101.429 13.684 102.088 13.776 102.625 13.96C103.162 14.1287 103.606 14.351 103.959 14.627C104.312 14.903 104.58 15.225 104.764 15.593C104.963 15.9457 105.101 16.306 105.178 16.674C105.27 17.042 105.324 17.4023 105.339 17.755C105.354 18.0923 105.362 18.3913 105.362 18.652V25H102.878V23.482ZM102.717 20.055H102.142C101.759 20.055 101.329 20.0703 100.854 20.101C100.379 20.1317 99.9264 20.2083 99.4971 20.331C99.0831 20.4383 98.7304 20.607 98.4391 20.837C98.1477 21.0517 98.0021 21.3583 98.0021 21.757C98.0021 22.0177 98.0557 22.24 98.1631 22.424C98.2857 22.5927 98.4391 22.7383 98.6231 22.861C98.8071 22.9837 99.0141 23.0757 99.2441 23.137C99.4741 23.183 99.7041 23.206 99.9341 23.206C100.885 23.206 101.582 22.9837 102.027 22.539C102.487 22.079 102.717 21.458 102.717 20.676V20.055ZM109.321 16.306H107.044V13.96H109.321V12.396C109.321 11.6293 109.374 10.9393 109.482 10.326C109.589 9.69733 109.788 9.16067 110.08 8.716C110.386 8.27133 110.808 7.934 111.345 7.704C111.881 7.45867 112.579 7.336 113.438 7.336C114.066 7.336 114.649 7.38967 115.186 7.497L115.002 9.843C114.802 9.797 114.611 9.75867 114.427 9.728C114.243 9.69733 114.051 9.682 113.852 9.682C113.468 9.682 113.162 9.74333 112.932 9.866C112.702 9.98867 112.518 10.1573 112.38 10.372C112.257 10.5713 112.173 10.809 112.127 11.085C112.096 11.361 112.081 11.6523 112.081 11.959V13.96H114.634V16.306H112.081V25H109.321V16.306ZM115.866 19.48C115.866 18.606 116.019 17.8163 116.326 17.111C116.648 16.3903 117.077 15.777 117.614 15.271C118.15 14.765 118.787 14.374 119.523 14.098C120.259 13.822 121.041 13.684 121.869 13.684C122.697 13.684 123.479 13.822 124.215 14.098C124.951 14.374 125.587 14.765 126.124 15.271C126.66 15.777 127.082 16.3903 127.389 17.111C127.711 17.8163 127.872 18.606 127.872 19.48C127.872 20.354 127.711 21.1513 127.389 21.872C127.082 22.5773 126.66 23.183 126.124 23.689C125.587 24.195 124.951 24.586 124.215 24.862C123.479 25.138 122.697 25.276 121.869 25.276C121.041 25.276 120.259 25.138 119.523 24.862C118.787 24.586 118.15 24.195 117.614 23.689C117.077 23.183 116.648 22.5773 116.326 21.872C116.019 21.1513 115.866 20.354 115.866 19.48ZM118.626 19.48C118.626 19.9093 118.695 20.3233 118.833 20.722C118.986 21.1207 119.201 21.4733 119.477 21.78C119.768 22.0867 120.113 22.332 120.512 22.516C120.91 22.7 121.363 22.792 121.869 22.792C122.375 22.792 122.827 22.7 123.226 22.516C123.624 22.332 123.962 22.0867 124.238 21.78C124.529 21.4733 124.744 21.1207 124.882 20.722C125.035 20.3233 125.112 19.9093 125.112 19.48C125.112 19.0507 125.035 18.6367 124.882 18.238C124.744 17.8393 124.529 17.4867 124.238 17.18C123.962 16.8733 123.624 16.628 123.226 16.444C122.827 16.26 122.375 16.168 121.869 16.168C121.363 16.168 120.91 16.26 120.512 16.444C120.113 16.628 119.768 16.8733 119.477 17.18C119.201 17.4867 118.986 17.8393 118.833 18.238C118.695 18.6367 118.626 19.0507 118.626 19.48ZM133.308 19.066L129.49 13.96H132.848L135.056 17.272L137.448 13.96H140.599L136.827 19.066L141.266 25H137.908L135.033 21.044L132.135 25H128.869L133.308 19.066Z" fill="white"/>
<defs>
<filter id="filter0_dii_1411_11" x="0.585114" y="0.5979" width="32.8271" height="29.9062" filterUnits="userSpaceOnUse" color-interpolation-filters="sRGB">
<feFlood flood-opacity="0" result="BackgroundImageFix"/>
<feColorMatrix in="SourceAlpha" type="matrix" values="0 0 0 0 0 0 0 0 0 0 0 0 0 0 0 0 0 0 127 0" result="hardAlpha"/>
<feOffset dy="0.25"/>
<feGaussianBlur stdDeviation="0.25"/>
<feComposite in2="hardAlpha" operator="out"/>
<feColorMatrix type="matrix" values="0 0 0 0 0 0 0 0 0 0 0 0 0 0 0 0 0 0 0.25 0"/>
<feBlend mode="normal" in2="BackgroundImageFix" result="effect1_dropShadow_1411_11"/>
<feBlend mode="normal" in="SourceGraphic" in2="effect1_dropShadow_1411_11" result="shape"/>
<feColorMatrix in="SourceAlpha" type="matrix" values="0 0 0 0 0 0 0 0 0 0 0 0 0 0 0 0 0 0 127 0" result="hardAlpha"/>
<feOffset dy="0.5"/>
<feGaussianBlur stdDeviation="0.25"/>
<feComposite in2="hardAlpha" operator="arithmetic" k2="-1" k3="1"/>
<feColorMatrix type="matrix" values="0 0 0 0 0 0 0 0 0 0 0 0 0 0 0 0 0 0 0.25 0"/>
<feBlend mode="normal" in2="shape" result="effect2_innerShadow_1411_11"/>
<feColorMatrix in="SourceAlpha" type="matrix" values="0 0 0 0 0 0 0 0 0 0 0 0 0 0 0 0 0 0 127 0" result="hardAlpha"/>
<feOffset dy="-0.5"/>
<feGaussianBlur stdDeviation="1"/>
<feComposite in2="hardAlpha" operator="arithmetic" k2="-1" k3="1"/>
<feColorMatrix type="matrix" values="0 0 0 0 1 0 0 0 0 1 0 0 0 0 1 0 0 0 0.42 0"/>
<feBlend mode="normal" in2="effect2_innerShadow_1411_11" result="effect3_innerShadow_1411_11"/>
</filter>
</defs>
</svg>
