<svg width="146" height="36" viewBox="0 0 146 36" fill="none" xmlns="http://www.w3.org/2000/svg">
<path d="M22.8393 30.0363L24.2185 26.884H25.465L28.5652 17.1314L31.1265 19.3971L27.7796 30.0363H22.8393Z" fill="#D31E21"/>
<path d="M8.11586 26.884H21.3732L20.0926 30.0363H5.78637L4.08518 24.4975L7.43456 24.6658L8.11586 26.884Z" fill="#D31E21"/>
<path d="M16.7835 0.0717773L21.1769 2.89649L18.4186 4.91597L16.7899 3.8495L8.12414 9.59526L7.2868 6.29513L16.7835 0.0717773Z" fill="#D31E21"/>
<path d="M23.3934 4.32491L33.6923 11.1968L31.9225 16.8358L29.376 14.4223L29.9722 12.5227L20.6351 6.29513L23.3934 4.32491Z" fill="#D31E21"/>
<path d="M3.705 12.5228L6.59722 22.0569H3.29709L0 11.1967L5.16881 7.77055L6.08613 10.9445L3.705 12.5228Z" fill="#D31E21"/>
<circle cx="30.1907" cy="16.9343" r="0.591067" fill="#D31E21"/>
<path d="M49.0321 8.99301H54.6453C55.4471 8.99301 56.2176 9.07163 56.9566 9.22886C57.7113 9.38609 58.3716 9.65338 58.9377 10.0307C59.5037 10.3924 59.9518 10.8876 60.282 11.5166C60.6279 12.1298 60.8009 12.9002 60.8009 13.8279C60.8009 14.8813 60.62 15.7303 60.2584 16.375C59.8968 17.0196 59.4094 17.5228 58.7962 17.8844C58.183 18.2303 57.4676 18.4662 56.65 18.5919C55.8481 18.7177 55.0069 18.7806 54.1264 18.7806H52.0038V25.6909H49.0321V8.99301ZM53.7962 16.2335C54.2207 16.2335 54.661 16.2178 55.117 16.1863C55.5729 16.1549 55.9896 16.0605 56.3669 15.9033C56.76 15.7461 57.0745 15.5102 57.3103 15.1958C57.5619 14.8813 57.6877 14.4411 57.6877 13.875C57.6877 13.3562 57.5776 12.9474 57.3575 12.6486C57.1374 12.3342 56.8544 12.0983 56.5085 11.9411C56.1625 11.7681 55.7773 11.6581 55.3528 11.6109C54.9283 11.5637 54.5195 11.5401 54.1264 11.5401H52.0038V16.2335H53.7962ZM65.4548 21.0212C65.5491 21.8702 65.8793 22.5306 66.4453 23.0023C67.0113 23.474 67.6953 23.7098 68.4972 23.7098C69.2047 23.7098 69.7943 23.5683 70.266 23.2853C70.7534 22.9865 71.178 22.6171 71.5396 22.1768L73.5679 23.7098C72.9075 24.5274 72.1685 25.1092 71.3509 25.4551C70.5333 25.801 69.6764 25.9739 68.7802 25.9739C67.9311 25.9739 67.1293 25.8324 66.3746 25.5494C65.6199 25.2664 64.9673 24.8655 64.417 24.3466C63.8667 23.8277 63.4265 23.2067 63.0963 22.4834C62.7818 21.7444 62.6246 20.9268 62.6246 20.0306C62.6246 19.1344 62.7818 18.3247 63.0963 17.6014C63.4265 16.8624 63.8667 16.2335 64.417 15.7146C64.9673 15.1958 65.6199 14.7948 66.3746 14.5118C67.1293 14.2288 67.9311 14.0873 68.7802 14.0873C69.5663 14.0873 70.2817 14.2288 70.9264 14.5118C71.5868 14.7791 72.1449 15.1722 72.6009 15.691C73.0726 16.2099 73.4342 16.8545 73.6858 17.625C73.9531 18.3797 74.0867 19.2523 74.0867 20.2429V21.0212H65.4548ZM71.2566 18.8985C71.2409 18.0652 70.9814 17.4127 70.4783 16.941C69.9751 16.4536 69.2755 16.2099 68.3793 16.2099C67.5302 16.2099 66.8541 16.4536 66.351 16.941C65.8636 17.4284 65.5648 18.0809 65.4548 18.8985H71.2566ZM76.7334 14.3703H79.422V16.1863H79.4692C79.7365 15.6203 80.1453 15.1329 80.6956 14.7241C81.2459 14.2995 81.9927 14.0873 82.9361 14.0873C83.6908 14.0873 84.3276 14.2131 84.8465 14.4646C85.3811 14.7162 85.8134 15.0464 86.1436 15.4552C86.4738 15.864 86.7097 16.3357 86.8512 16.8703C86.9927 17.4049 87.0634 17.963 87.0634 18.5448V25.6909H84.2333V19.9599C84.2333 19.6454 84.2176 19.2995 84.1861 18.9221C84.1547 18.5291 84.0682 18.1674 83.9267 17.8372C83.8009 17.4913 83.5965 17.2083 83.3135 16.9882C83.0305 16.7523 82.6452 16.6344 82.1578 16.6344C81.6861 16.6344 81.2852 16.713 80.955 16.8703C80.6406 17.0275 80.3733 17.2398 80.1531 17.5071C79.9487 17.7743 79.7994 18.0809 79.705 18.4269C79.6107 18.7728 79.5635 19.1344 79.5635 19.5117V25.6909H76.7334V14.3703ZM88.9554 16.7759V14.3703H91.2902V11.092H94.1204V14.3703H97.2336V16.7759H94.1204V21.7287C94.1204 22.2947 94.2226 22.7428 94.427 23.073C94.6471 23.4032 95.0716 23.5683 95.7006 23.5683C95.9521 23.5683 96.2273 23.5447 96.526 23.4975C96.8248 23.4347 97.0606 23.3403 97.2336 23.2145V25.5966C96.9348 25.7381 96.5653 25.8324 96.1251 25.8796C95.7006 25.9425 95.3232 25.9739 94.993 25.9739C94.2383 25.9739 93.6172 25.8875 93.1298 25.7145C92.6581 25.5573 92.2808 25.3136 91.9978 24.9834C91.7305 24.6375 91.5418 24.2129 91.4317 23.7098C91.3374 23.2067 91.2902 22.6249 91.2902 21.9645V16.7759H88.9554ZM106.518 24.1343H106.447C106.039 24.779 105.52 25.2507 104.891 25.5494C104.262 25.8324 103.57 25.9739 102.815 25.9739C102.297 25.9739 101.786 25.9032 101.282 25.7617C100.795 25.6202 100.355 25.4079 99.9616 25.1249C99.5843 24.8419 99.2777 24.4881 99.0418 24.0636C98.806 23.6391 98.6881 23.1438 98.6881 22.5777C98.6881 21.9645 98.7981 21.4457 99.0183 21.0212C99.2384 20.5809 99.5293 20.2193 99.8909 19.9363C100.268 19.6375 100.701 19.4017 101.188 19.2287C101.675 19.0558 102.179 18.93 102.697 18.8514C103.232 18.757 103.767 18.702 104.301 18.6863C104.836 18.6548 105.339 18.6391 105.811 18.6391H106.518V18.3325C106.518 17.625 106.274 17.0983 105.787 16.7523C105.3 16.3907 104.679 16.2099 103.924 16.2099C103.326 16.2099 102.768 16.32 102.249 16.5401C101.73 16.7445 101.282 17.0275 100.905 17.3891L99.4192 15.9033C100.048 15.2587 100.779 14.7948 101.613 14.5118C102.462 14.2288 103.334 14.0873 104.23 14.0873C105.032 14.0873 105.708 14.1816 106.259 14.3703C106.809 14.5433 107.265 14.7712 107.627 15.0543C107.988 15.3373 108.263 15.6675 108.452 16.0448C108.656 16.4064 108.798 16.7759 108.877 17.1533C108.971 17.5306 109.026 17.9001 109.042 18.2618C109.057 18.6077 109.065 18.9143 109.065 19.1816V25.6909H106.518V24.1343ZM106.353 20.6202H105.763C105.37 20.6202 104.93 20.6359 104.443 20.6674C103.955 20.6988 103.491 20.7775 103.051 20.9032C102.627 21.0133 102.265 21.1863 101.966 21.4221C101.668 21.6422 101.518 21.9567 101.518 22.3655C101.518 22.6328 101.573 22.8608 101.683 23.0494C101.809 23.2224 101.966 23.3718 102.155 23.4975C102.344 23.6233 102.556 23.7177 102.792 23.7806C103.028 23.8277 103.263 23.8513 103.499 23.8513C104.474 23.8513 105.19 23.6233 105.646 23.1674C106.117 22.6957 106.353 22.0589 106.353 21.257V20.6202ZM113.124 16.7759H110.79V14.3703H113.124V12.7665C113.124 11.9804 113.179 11.2729 113.29 10.6439C113.4 9.99929 113.604 9.44898 113.903 8.99301C114.217 8.53704 114.65 8.19113 115.2 7.95529C115.75 7.70372 116.466 7.57793 117.346 7.57793C117.991 7.57793 118.588 7.63296 119.139 7.74302L118.95 10.1487C118.745 10.1015 118.549 10.0622 118.36 10.0307C118.172 9.99929 117.975 9.98356 117.771 9.98356C117.378 9.98356 117.063 10.0465 116.827 10.1722C116.591 10.298 116.403 10.471 116.261 10.6911C116.135 10.8955 116.049 11.1392 116.002 11.4222C115.97 11.7052 115.955 12.004 115.955 12.3184V14.3703H118.572V16.7759H115.955V25.6909H113.124V16.7759ZM119.836 20.0306C119.836 19.1344 119.993 18.3247 120.307 17.6014C120.638 16.8624 121.078 16.2335 121.628 15.7146C122.178 15.1958 122.831 14.7948 123.586 14.5118C124.34 14.2288 125.142 14.0873 125.991 14.0873C126.84 14.0873 127.642 14.2288 128.397 14.5118C129.152 14.7948 129.804 15.1958 130.354 15.7146C130.905 16.2335 131.337 16.8624 131.652 17.6014C131.982 18.3247 132.147 19.1344 132.147 20.0306C132.147 20.9268 131.982 21.7444 131.652 22.4834C131.337 23.2067 130.905 23.8277 130.354 24.3466C129.804 24.8655 129.152 25.2664 128.397 25.5494C127.642 25.8324 126.84 25.9739 125.991 25.9739C125.142 25.9739 124.34 25.8324 123.586 25.5494C122.831 25.2664 122.178 24.8655 121.628 24.3466C121.078 23.8277 120.638 23.2067 120.307 22.4834C119.993 21.7444 119.836 20.9268 119.836 20.0306ZM122.666 20.0306C122.666 20.4709 122.737 20.8954 122.878 21.3042C123.035 21.713 123.255 22.0746 123.539 22.3891C123.837 22.7035 124.191 22.9551 124.6 23.1438C125.009 23.3325 125.472 23.4268 125.991 23.4268C126.51 23.4268 126.974 23.3325 127.383 23.1438C127.792 22.9551 128.138 22.7035 128.421 22.3891C128.719 22.0746 128.939 21.713 129.081 21.3042C129.238 20.8954 129.317 20.4709 129.317 20.0306C129.317 19.5904 129.238 19.1658 129.081 18.757C128.939 18.3482 128.719 17.9866 128.421 17.6721C128.138 17.3577 127.792 17.1061 127.383 16.9174C126.974 16.7288 126.51 16.6344 125.991 16.6344C125.472 16.6344 125.009 16.7288 124.6 16.9174C124.191 17.1061 123.837 17.3577 123.539 17.6721C123.255 17.9866 123.035 18.3482 122.878 18.757C122.737 19.1658 122.666 19.5904 122.666 20.0306ZM137.721 19.6061L133.806 14.3703H137.249L139.514 17.7665L141.966 14.3703H145.197L141.33 19.6061L145.881 25.6909H142.438L139.49 21.6344L136.518 25.6909H133.169L137.721 19.6061Z" fill="#3E3E3E"/>
</svg>
