<svg width="139" height="31" viewBox="0 0 139 31" fill="none" xmlns="http://www.w3.org/2000/svg">
<g filter="url(#filter0_dii_3770_1460)">
<path d="M23.4538 29.7542C23.094 29.7542 22.852 29.3857 22.9949 29.0555L23.8718 27.0305C23.951 26.8476 24.1313 26.7292 24.3307 26.7292H24.8193C25.0377 26.7292 25.2308 26.5876 25.2963 26.3793L27.8982 18.1096C28.0072 17.7632 28.4375 17.6448 28.7083 17.8869L30.3235 19.3304C30.4696 19.461 30.5259 19.6648 30.4677 19.8519L27.4939 29.4028C27.4289 29.6118 27.2354 29.7542 27.0165 29.7542H23.4538Z" fill="white"/>
<path d="M8.60032 26.3745C8.66434 26.5851 8.85858 26.7291 9.0787 26.7291H20.5596C20.9137 26.7291 21.1556 27.087 21.0235 27.4156L20.2093 29.4405C20.1332 29.6299 19.9495 29.754 19.7454 29.754H6.86622C6.64609 29.754 6.45186 29.6101 6.38784 29.3994L5.08686 25.1198C4.98612 24.7884 5.24468 24.4575 5.5906 24.475L7.71017 24.5827C7.92069 24.5933 8.1019 24.7349 8.16321 24.9366L8.60032 26.3745Z" fill="white"/>
<path d="M16.6672 1.18103C16.8332 1.07111 17.0486 1.07017 17.2156 1.17863L20.5089 3.31797C20.8015 3.50803 20.8144 3.93175 20.5339 4.13924L18.7749 5.44038C18.606 5.56535 18.3769 5.57135 18.2017 5.45541L17.2243 4.80878C17.0561 4.69754 16.8376 4.69817 16.6701 4.81038L9.30637 9.7434C9.0189 9.93597 8.62743 9.78537 8.54315 9.44978L8.00711 7.31524C7.95545 7.10954 8.03918 6.89364 8.21602 6.77655L16.6672 1.18103Z" fill="white"/>
<path d="M22.9355 5.28568C23.1055 5.16304 23.3339 5.15939 23.5076 5.27653L32.6917 11.468C32.8747 11.5914 32.9552 11.8201 32.8897 12.0309L31.5588 16.3154C31.4486 16.6701 31.0038 16.7851 30.7355 16.5282L29.124 14.985C28.987 14.8539 28.936 14.6566 28.9923 14.4756L29.3564 13.3033C29.4219 13.0925 29.3414 12.8637 29.1583 12.7404L21.1931 7.37276C20.9047 7.1784 20.8979 6.75622 21.1799 6.55268L22.9355 5.28568Z" fill="white"/>
<path d="M4.82577 12.7427C4.64337 12.8649 4.56198 13.0917 4.62511 13.3019L7.07256 21.4534C7.16889 21.7742 6.92866 22.0972 6.59368 22.0972H4.50333C4.2826 22.0972 4.08799 21.9525 4.02448 21.7411L1.1063 12.0295C1.04312 11.8192 1.1245 11.5923 1.30693 11.4701L5.33898 8.76981C5.62076 8.58111 6.00466 8.72169 6.09793 9.04774L6.68025 11.0834C6.73995 11.2922 6.65814 11.5156 6.47775 11.6364L4.82577 12.7427Z" fill="white"/>
<path d="M29.6742 17.7486C29.9842 17.7486 30.2356 17.4947 30.2356 17.1814C30.2356 16.8682 29.9842 16.6143 29.6742 16.6143C29.3641 16.6143 29.1128 16.8682 29.1128 17.1814C29.1128 17.4947 29.3641 17.7486 29.6742 17.7486Z" fill="white"/>
</g>
<path d="M44.956 18.997V16.444H48.705C49.1957 16.444 49.6403 16.3443 50.039 16.145C50.4377 15.9457 50.752 15.662 50.982 15.294C51.212 14.9107 51.327 14.4507 51.327 13.914C51.327 13.3927 51.212 12.9403 50.982 12.557C50.752 12.1737 50.4377 11.8823 50.039 11.683C49.6403 11.4837 49.1957 11.384 48.705 11.384H44.956V8.831H49.027C50.0543 8.831 50.9743 9.038 51.787 9.452C52.615 9.866 53.2667 10.4563 53.742 11.223C54.2173 11.9743 54.455 12.8713 54.455 13.914C54.455 14.9567 54.2173 15.8613 53.742 16.628C53.2667 17.3793 52.615 17.962 51.787 18.376C50.9743 18.79 50.0543 18.997 49.027 18.997H44.956ZM42.656 25V8.831H45.784V25H42.656ZM61.3033 25.23C60.1379 25.23 59.1029 24.9847 58.1983 24.494C57.2936 23.988 56.5729 23.298 56.0363 22.424C55.5149 21.55 55.2543 20.5533 55.2543 19.434C55.2543 18.33 55.5073 17.3487 56.0133 16.49C56.5346 15.616 57.2399 14.926 58.1293 14.42C59.0186 13.8987 60.0076 13.638 61.0963 13.638C62.1696 13.638 63.1126 13.8833 63.9253 14.374C64.7533 14.8493 65.3973 15.5087 65.8573 16.352C66.3326 17.18 66.5703 18.123 66.5703 19.181C66.5703 19.3803 66.5549 19.5873 66.5243 19.802C66.5089 20.0013 66.4706 20.2313 66.4093 20.492L57.0713 20.515V18.261L65.0063 18.238L63.7873 19.181C63.7566 18.5217 63.6339 17.9697 63.4193 17.525C63.2199 17.0803 62.9209 16.743 62.5223 16.513C62.1389 16.2677 61.6636 16.145 61.0963 16.145C60.4983 16.145 59.9769 16.283 59.5323 16.559C59.0876 16.8197 58.7426 17.1953 58.4973 17.686C58.2673 18.1613 58.1523 18.7287 58.1523 19.388C58.1523 20.0627 58.2749 20.653 58.5203 21.159C58.7809 21.6497 59.1489 22.033 59.6243 22.309C60.0996 22.5697 60.6516 22.7 61.2803 22.7C61.8476 22.7 62.3613 22.608 62.8213 22.424C63.2813 22.2247 63.6799 21.9333 64.0173 21.55L65.7883 23.321C65.2516 23.9497 64.5923 24.425 63.8103 24.747C63.0436 25.069 62.2079 25.23 61.3033 25.23ZM75.9086 25V18.629C75.9086 17.9697 75.7016 17.433 75.2876 17.019C74.8736 16.605 74.3369 16.398 73.6776 16.398C73.2483 16.398 72.8649 16.49 72.5276 16.674C72.1903 16.858 71.9219 17.1187 71.7226 17.456C71.5386 17.7933 71.4466 18.1843 71.4466 18.629L70.2736 18.031C70.2736 17.157 70.4576 16.398 70.8256 15.754C71.2089 15.0947 71.7303 14.581 72.3896 14.213C73.0643 13.845 73.8233 13.661 74.6666 13.661C75.4793 13.661 76.2076 13.868 76.8516 14.282C77.4956 14.6807 78.0016 15.2097 78.3696 15.869C78.7376 16.513 78.9216 17.2107 78.9216 17.962V25H75.9086ZM68.4336 25V13.891H71.4466V25H68.4336ZM82.8469 25V9.268H85.8599V25H82.8469ZM80.2479 16.536V13.891H88.4589V16.536H80.2479ZM94.5298 25.23C93.5178 25.23 92.6055 24.977 91.7928 24.471C90.9801 23.965 90.3438 23.275 89.8838 22.401C89.4238 21.527 89.1938 20.5457 89.1938 19.457C89.1938 18.353 89.4238 17.364 89.8838 16.49C90.3438 15.616 90.9801 14.926 91.7928 14.42C92.6055 13.914 93.5178 13.661 94.5298 13.661C95.3271 13.661 96.0401 13.822 96.6688 14.144C97.2975 14.466 97.7958 14.9183 98.1638 15.501C98.5471 16.0683 98.7541 16.7123 98.7848 17.433V21.435C98.7541 22.171 98.5471 22.8227 98.1638 23.39C97.7958 23.9573 97.2975 24.4097 96.6688 24.747C96.0401 25.069 95.3271 25.23 94.5298 25.23ZM95.0818 22.447C95.9251 22.447 96.6075 22.171 97.1288 21.619C97.6501 21.0517 97.9108 20.3233 97.9108 19.434C97.9108 18.8513 97.7881 18.3377 97.5428 17.893C97.3128 17.433 96.9831 17.0803 96.5538 16.835C96.1398 16.5743 95.6491 16.444 95.0818 16.444C94.5298 16.444 94.0391 16.5743 93.6098 16.835C93.1958 17.0803 92.8661 17.433 92.6208 17.893C92.3908 18.3377 92.2758 18.8513 92.2758 19.434C92.2758 20.032 92.3908 20.561 92.6208 21.021C92.8661 21.4657 93.1958 21.8183 93.6098 22.079C94.0391 22.3243 94.5298 22.447 95.0818 22.447ZM97.7498 25V22.01L98.2328 19.296L97.7498 16.628V13.891H100.74V25H97.7498ZM104.877 25V12.695C104.877 11.8057 105.069 11.0237 105.452 10.349C105.836 9.659 106.38 9.11467 107.085 8.716C107.791 8.31733 108.619 8.118 109.569 8.118C110.29 8.118 110.911 8.24067 111.432 8.486C111.954 8.73133 112.421 9.06867 112.835 9.498L110.926 11.43C110.758 11.2613 110.574 11.131 110.374 11.039C110.175 10.947 109.922 10.901 109.615 10.901C109.063 10.901 108.634 11.0543 108.327 11.361C108.036 11.6523 107.89 12.074 107.89 12.626V25H104.877ZM102.301 16.536V13.891H111.179V16.536H102.301ZM117.745 25.23C116.626 25.23 115.614 24.977 114.709 24.471C113.82 23.9497 113.107 23.252 112.57 22.378C112.049 21.4887 111.788 20.4997 111.788 19.411C111.788 18.3223 112.049 17.3487 112.57 16.49C113.092 15.616 113.805 14.926 114.709 14.42C115.614 13.8987 116.618 13.638 117.722 13.638C118.857 13.638 119.869 13.8987 120.758 14.42C121.663 14.926 122.376 15.616 122.897 16.49C123.419 17.3487 123.679 18.3223 123.679 19.411C123.679 20.4997 123.419 21.4887 122.897 22.378C122.376 23.252 121.663 23.9497 120.758 24.471C119.869 24.977 118.865 25.23 117.745 25.23ZM117.722 22.424C118.29 22.424 118.788 22.3013 119.217 22.056C119.662 21.7953 119.999 21.4427 120.229 20.998C120.475 20.538 120.597 20.0167 120.597 19.434C120.597 18.8513 120.475 18.3377 120.229 17.893C119.984 17.4483 119.647 17.1033 119.217 16.858C118.788 16.5973 118.29 16.467 117.722 16.467C117.17 16.467 116.68 16.5973 116.25 16.858C115.821 17.1033 115.484 17.4483 115.238 17.893C114.993 18.3377 114.87 18.8513 114.87 19.434C114.87 20.0167 114.993 20.538 115.238 20.998C115.484 21.4427 115.821 21.7953 116.25 22.056C116.68 22.3013 117.17 22.424 117.722 22.424ZM132.273 25L129.352 20.492L128.731 20.032L124.407 13.891H127.972L130.663 17.962L131.238 18.399L135.815 25H132.273ZM124.177 25L128.708 18.652L130.433 20.699L127.581 25H124.177ZM131.353 20.009L129.582 17.985L132.227 13.891H135.608L131.353 20.009Z" fill="white"/>
<defs>
<filter id="filter0_dii_3770_1460" x="0.584961" y="0.5979" width="32.8271" height="29.9062" filterUnits="userSpaceOnUse" color-interpolation-filters="sRGB">
<feFlood flood-opacity="0" result="BackgroundImageFix"/>
<feColorMatrix in="SourceAlpha" type="matrix" values="0 0 0 0 0 0 0 0 0 0 0 0 0 0 0 0 0 0 127 0" result="hardAlpha"/>
<feOffset dy="0.25"/>
<feGaussianBlur stdDeviation="0.25"/>
<feComposite in2="hardAlpha" operator="out"/>
<feColorMatrix type="matrix" values="0 0 0 0 0 0 0 0 0 0 0 0 0 0 0 0 0 0 0.25 0"/>
<feBlend mode="normal" in2="BackgroundImageFix" result="effect1_dropShadow_3770_1460"/>
<feBlend mode="normal" in="SourceGraphic" in2="effect1_dropShadow_3770_1460" result="shape"/>
<feColorMatrix in="SourceAlpha" type="matrix" values="0 0 0 0 0 0 0 0 0 0 0 0 0 0 0 0 0 0 127 0" result="hardAlpha"/>
<feOffset dy="0.5"/>
<feGaussianBlur stdDeviation="0.25"/>
<feComposite in2="hardAlpha" operator="arithmetic" k2="-1" k3="1"/>
<feColorMatrix type="matrix" values="0 0 0 0 0 0 0 0 0 0 0 0 0 0 0 0 0 0 0.25 0"/>
<feBlend mode="normal" in2="shape" result="effect2_innerShadow_3770_1460"/>
<feColorMatrix in="SourceAlpha" type="matrix" values="0 0 0 0 0 0 0 0 0 0 0 0 0 0 0 0 0 0 127 0" result="hardAlpha"/>
<feOffset dy="-0.5"/>
<feGaussianBlur stdDeviation="1"/>
<feComposite in2="hardAlpha" operator="arithmetic" k2="-1" k3="1"/>
<feColorMatrix type="matrix" values="0 0 0 0 1 0 0 0 0 1 0 0 0 0 1 0 0 0 0.42 0"/>
<feBlend mode="normal" in2="effect2_innerShadow_3770_1460" result="effect3_innerShadow_3770_1460"/>
</filter>
</defs>
</svg>
