<svg width="143" height="31" viewBox="0 0 143 31" fill="none" xmlns="http://www.w3.org/2000/svg">
<g filter="url(#filter0_dii_1411_11)">
<path d="M23.4535 29.7542C23.0938 29.7542 22.8517 29.3857 22.9947 29.0555L23.8716 27.0305C23.9508 26.8476 24.1311 26.7292 24.3304 26.7292H24.8191C25.0374 26.7292 25.2305 26.5876 25.2961 26.3793L27.8979 18.1096C28.0069 17.7632 28.4373 17.6448 28.7081 17.8869L30.3233 19.3304C30.4693 19.461 30.5257 19.6648 30.4675 19.8519L27.4937 29.4028C27.4286 29.6118 27.2352 29.7542 27.0163 29.7542H23.4535Z" fill="white"/>
<path d="M8.60044 26.3745C8.66447 26.5851 8.8587 26.7291 9.07883 26.7291H20.5597C20.9138 26.7291 21.1557 27.087 21.0236 27.4156L20.2094 29.4405C20.1333 29.6299 19.9497 29.754 19.7455 29.754H6.86634C6.64622 29.754 6.45198 29.6101 6.38796 29.3994L5.08698 25.1198C4.98624 24.7884 5.2448 24.4575 5.59072 24.475L7.7103 24.5827C7.92082 24.5933 8.10202 24.7349 8.16333 24.9366L8.60044 26.3745Z" fill="white"/>
<path d="M16.6671 1.18103C16.8331 1.07111 17.0485 1.07017 17.2155 1.17863L20.5088 3.31797C20.8014 3.50803 20.8142 3.93175 20.5337 4.13924L18.7748 5.44038C18.6059 5.56535 18.3768 5.57135 18.2016 5.45541L17.2242 4.80878C17.056 4.69754 16.8375 4.69817 16.67 4.81038L9.30625 9.7434C9.01878 9.93597 8.62731 9.78537 8.54303 9.44978L8.00699 7.31524C7.95533 7.10954 8.03906 6.89364 8.2159 6.77655L16.6671 1.18103Z" fill="white"/>
<path d="M22.9356 5.28568C23.1055 5.16304 23.3339 5.15939 23.5077 5.27653L32.6917 11.468C32.8747 11.5914 32.9552 11.8201 32.8897 12.0309L31.5588 16.3154C31.4486 16.6701 31.0038 16.7851 30.7355 16.5282L29.124 14.985C28.9871 14.8539 28.9361 14.6566 28.9923 14.4756L29.3565 13.3033C29.4219 13.0925 29.3414 12.8637 29.1584 12.7404L21.1931 7.37276C20.9047 7.1784 20.8979 6.75622 21.1799 6.55268L22.9356 5.28568Z" fill="white"/>
<path d="M4.82577 12.7427C4.64337 12.8649 4.56198 13.0917 4.62511 13.3019L7.07256 21.4534C7.16889 21.7742 6.92866 22.0972 6.59368 22.0972H4.50333C4.2826 22.0972 4.08799 21.9525 4.02448 21.7411L1.1063 12.0295C1.04312 11.8192 1.1245 11.5923 1.30693 11.4701L5.33898 8.76981C5.62076 8.58111 6.00466 8.72169 6.09793 9.04774L6.68025 11.0834C6.73995 11.2922 6.65814 11.5156 6.47775 11.6364L4.82577 12.7427Z" fill="white"/>
<path d="M29.6743 17.7486C29.9843 17.7486 30.2357 17.4947 30.2357 17.1814C30.2357 16.8682 29.9843 16.6143 29.6743 16.6143C29.3643 16.6143 29.1129 16.8682 29.1129 17.1814C29.1129 17.4947 29.3643 17.7486 29.6743 17.7486Z" fill="white"/>
</g>
<path d="M47.093 8.716H52.82C53.8627 8.716 54.7213 8.86167 55.396 9.153C56.0707 9.429 56.5997 9.78933 56.983 10.234C57.3817 10.6633 57.6577 11.154 57.811 11.706C57.9643 12.2427 58.041 12.764 58.041 13.27C58.041 13.776 57.9643 14.305 57.811 14.857C57.6577 15.3937 57.3817 15.8843 56.983 16.329C56.5997 16.7583 56.0707 17.1187 55.396 17.41C54.7213 17.686 53.8627 17.824 52.82 17.824H49.301V25H47.093V8.716ZM49.301 15.892H52.199C52.6283 15.892 53.05 15.8613 53.464 15.8C53.8933 15.7233 54.269 15.593 54.591 15.409C54.9283 15.225 55.1967 14.9643 55.396 14.627C55.5953 14.2743 55.695 13.822 55.695 13.27C55.695 12.718 55.5953 12.2733 55.396 11.936C55.1967 11.5833 54.9283 11.315 54.591 11.131C54.269 10.947 53.8933 10.8243 53.464 10.763C53.05 10.6863 52.6283 10.648 52.199 10.648H49.301V15.892ZM61.7618 20.308C61.7618 20.7833 61.8615 21.2203 62.0608 21.619C62.2755 22.0023 62.5515 22.332 62.8888 22.608C63.2261 22.884 63.6171 23.0987 64.0618 23.252C64.5065 23.4053 64.9665 23.482 65.4418 23.482C66.0858 23.482 66.6455 23.3363 67.1208 23.045C67.5961 22.7383 68.0331 22.3397 68.4318 21.849L69.9958 23.045C68.8458 24.5323 67.2358 25.276 65.1658 25.276C64.3071 25.276 63.5251 25.1303 62.8198 24.839C62.1298 24.5477 61.5395 24.149 61.0488 23.643C60.5735 23.1217 60.2055 22.516 59.9448 21.826C59.6841 21.1207 59.5538 20.3617 59.5538 19.549C59.5538 18.7363 59.6918 17.985 59.9678 17.295C60.2591 16.5897 60.6501 15.984 61.1408 15.478C61.6468 14.9567 62.2448 14.5503 62.9348 14.259C63.6248 13.9677 64.3761 13.822 65.1888 13.822C66.1548 13.822 66.9675 13.9907 67.6268 14.328C68.3015 14.6653 68.8535 15.11 69.2828 15.662C69.7121 16.1987 70.0188 16.812 70.2028 17.502C70.4021 18.1767 70.5018 18.8667 70.5018 19.572V20.308H61.7618ZM68.2938 18.652C68.2785 18.192 68.2018 17.7703 68.0638 17.387C67.9411 17.0037 67.7495 16.674 67.4888 16.398C67.2281 16.1067 66.8985 15.8843 66.4998 15.731C66.1165 15.5623 65.6641 15.478 65.1428 15.478C64.6368 15.478 64.1691 15.5777 63.7398 15.777C63.3258 15.961 62.9731 16.2063 62.6818 16.513C62.3905 16.8197 62.1605 17.1647 61.9918 17.548C61.8385 17.916 61.7618 18.284 61.7618 18.652H68.2938ZM72.9781 14.098H75.0481V15.777H75.0941C75.3547 15.1943 75.8071 14.7267 76.4511 14.374C77.0951 14.006 77.8387 13.822 78.6821 13.822C79.2034 13.822 79.7017 13.9063 80.1771 14.075C80.6677 14.2283 81.0894 14.4737 81.4421 14.811C81.8101 15.1483 82.1014 15.5853 82.3161 16.122C82.5307 16.6433 82.6381 17.2643 82.6381 17.985V25H80.5681V18.56C80.5681 18.054 80.4991 17.6247 80.3611 17.272C80.2231 16.904 80.0391 16.6127 79.8091 16.398C79.5791 16.168 79.3107 16.007 79.0041 15.915C78.7127 15.8077 78.4061 15.754 78.0841 15.754C77.6547 15.754 77.2561 15.823 76.8881 15.961C76.5201 16.099 76.1981 16.3213 75.9221 16.628C75.6461 16.9193 75.4314 17.295 75.2781 17.755C75.1247 18.215 75.0481 18.7593 75.0481 19.388V25H72.9781V14.098ZM91.6003 15.892H88.6333V20.837C88.6333 21.1437 88.641 21.4503 88.6563 21.757C88.6717 22.0483 88.7253 22.3167 88.8173 22.562C88.9247 22.792 89.078 22.9837 89.2773 23.137C89.492 23.275 89.7987 23.344 90.1973 23.344C90.4427 23.344 90.6957 23.321 90.9563 23.275C91.217 23.229 91.4547 23.1447 91.6693 23.022V24.908C91.424 25.046 91.102 25.138 90.7033 25.184C90.32 25.2453 90.021 25.276 89.8063 25.276C89.009 25.276 88.388 25.1687 87.9433 24.954C87.514 24.724 87.192 24.4327 86.9773 24.08C86.778 23.7273 86.6553 23.3363 86.6093 22.907C86.5787 22.4623 86.5633 22.0177 86.5633 21.573V15.892H84.1713V14.098H86.5633V11.039H88.6333V14.098H91.6003V15.892ZM94.317 15.432C94.8997 14.8953 95.5744 14.4967 96.341 14.236C97.1077 13.96 97.8744 13.822 98.641 13.822C99.4384 13.822 100.121 13.9217 100.688 14.121C101.271 14.3203 101.746 14.5887 102.114 14.926C102.482 15.2633 102.75 15.6543 102.919 16.099C103.103 16.5283 103.195 16.9807 103.195 17.456V23.022C103.195 23.4053 103.203 23.758 103.218 24.08C103.233 24.402 103.256 24.7087 103.287 25H101.447C101.401 24.448 101.378 23.896 101.378 23.344H101.332C100.872 24.0493 100.328 24.5477 99.699 24.839C99.0704 25.1303 98.342 25.276 97.514 25.276C97.008 25.276 96.525 25.207 96.065 25.069C95.605 24.931 95.1987 24.724 94.846 24.448C94.5087 24.172 94.2404 23.8347 94.041 23.436C93.8417 23.022 93.742 22.5467 93.742 22.01C93.742 21.3047 93.8954 20.7143 94.202 20.239C94.524 19.7637 94.9534 19.3803 95.49 19.089C96.042 18.7823 96.6784 18.5677 97.399 18.445C98.135 18.307 98.917 18.238 99.745 18.238H101.263V17.778C101.263 17.502 101.209 17.226 101.102 16.95C100.995 16.674 100.834 16.4287 100.619 16.214C100.404 15.984 100.136 15.8077 99.814 15.685C99.492 15.547 99.1087 15.478 98.664 15.478C98.2654 15.478 97.9127 15.5163 97.606 15.593C97.3147 15.6697 97.0464 15.7693 96.801 15.892C96.5557 15.9993 96.3334 16.1297 96.134 16.283C95.9347 16.4363 95.743 16.582 95.559 16.72L94.317 15.432ZM100.159 19.756C99.6684 19.756 99.1624 19.7867 98.641 19.848C98.135 19.894 97.6674 19.9937 97.238 20.147C96.824 20.3003 96.479 20.515 96.203 20.791C95.9424 21.067 95.812 21.4197 95.812 21.849C95.812 22.4777 96.019 22.93 96.433 23.206C96.8624 23.482 97.4374 23.62 98.158 23.62C98.7254 23.62 99.2084 23.528 99.607 23.344C100.006 23.1447 100.328 22.8917 100.573 22.585C100.818 22.2783 100.995 21.941 101.102 21.573C101.209 21.1897 101.263 20.814 101.263 20.446V19.756H100.159ZM107.003 15.892H104.657V14.098H107.003V11.66C107.003 10.2033 107.279 9.12233 107.831 8.417C108.398 7.69633 109.364 7.336 110.729 7.336C110.959 7.336 111.196 7.34367 111.442 7.359C111.702 7.37433 111.978 7.42033 112.27 7.497L112.04 9.337C111.84 9.26033 111.649 9.20667 111.465 9.176C111.281 9.14533 111.081 9.13 110.867 9.13C110.483 9.13 110.177 9.19133 109.947 9.314C109.717 9.42133 109.533 9.58233 109.395 9.797C109.272 10.0117 109.188 10.2723 109.142 10.579C109.111 10.8703 109.096 11.2077 109.096 11.591V14.098H111.557V15.892H109.073V25H107.003V15.892ZM115.536 19.549C115.536 20.101 115.62 20.6147 115.789 21.09C115.958 21.55 116.195 21.9487 116.502 22.286C116.809 22.608 117.184 22.8687 117.629 23.068C118.074 23.252 118.572 23.344 119.124 23.344C119.676 23.344 120.174 23.252 120.619 23.068C121.064 22.8687 121.439 22.608 121.746 22.286C122.053 21.9487 122.29 21.55 122.459 21.09C122.628 20.6147 122.712 20.101 122.712 19.549C122.712 18.997 122.628 18.491 122.459 18.031C122.29 17.5557 122.053 17.157 121.746 16.835C121.439 16.4977 121.064 16.237 120.619 16.053C120.174 15.8537 119.676 15.754 119.124 15.754C118.572 15.754 118.074 15.8537 117.629 16.053C117.184 16.237 116.809 16.4977 116.502 16.835C116.195 17.157 115.958 17.5557 115.789 18.031C115.62 18.491 115.536 18.997 115.536 19.549ZM113.328 19.549C113.328 18.7517 113.474 18.008 113.765 17.318C114.072 16.628 114.486 16.0223 115.007 15.501C115.528 14.9797 116.142 14.5733 116.847 14.282C117.552 13.9753 118.311 13.822 119.124 13.822C119.937 13.822 120.696 13.9753 121.401 14.282C122.106 14.5733 122.72 14.9797 123.241 15.501C123.762 16.0223 124.169 16.628 124.46 17.318C124.767 18.008 124.92 18.7517 124.92 19.549C124.92 20.3463 124.767 21.0977 124.46 21.803C124.169 22.493 123.762 23.0987 123.241 23.62C122.72 24.126 122.106 24.5323 121.401 24.839C120.696 25.1303 119.937 25.276 119.124 25.276C118.311 25.276 117.552 25.1303 116.847 24.839C116.142 24.5323 115.528 24.126 115.007 23.62C114.486 23.0987 114.072 22.493 113.765 21.803C113.474 21.0977 113.328 20.3463 113.328 19.549ZM130.503 19.181L126.639 14.098H129.307L131.952 17.962L134.551 14.098H137.058L133.332 19.181L137.748 25H135.08L131.86 20.423L128.64 25H126.087L130.503 19.181Z" fill="white"/>
<defs>
<filter id="filter0_dii_1411_11" x="0.585114" y="0.5979" width="32.8271" height="29.9062" filterUnits="userSpaceOnUse" color-interpolation-filters="sRGB">
<feFlood flood-opacity="0" result="BackgroundImageFix"/>
<feColorMatrix in="SourceAlpha" type="matrix" values="0 0 0 0 0 0 0 0 0 0 0 0 0 0 0 0 0 0 127 0" result="hardAlpha"/>
<feOffset dy="0.25"/>
<feGaussianBlur stdDeviation="0.25"/>
<feComposite in2="hardAlpha" operator="out"/>
<feColorMatrix type="matrix" values="0 0 0 0 0 0 0 0 0 0 0 0 0 0 0 0 0 0 0.25 0"/>
<feBlend mode="normal" in2="BackgroundImageFix" result="effect1_dropShadow_1411_11"/>
<feBlend mode="normal" in="SourceGraphic" in2="effect1_dropShadow_1411_11" result="shape"/>
<feColorMatrix in="SourceAlpha" type="matrix" values="0 0 0 0 0 0 0 0 0 0 0 0 0 0 0 0 0 0 127 0" result="hardAlpha"/>
<feOffset dy="0.5"/>
<feGaussianBlur stdDeviation="0.25"/>
<feComposite in2="hardAlpha" operator="arithmetic" k2="-1" k3="1"/>
<feColorMatrix type="matrix" values="0 0 0 0 0 0 0 0 0 0 0 0 0 0 0 0 0 0 0.25 0"/>
<feBlend mode="normal" in2="shape" result="effect2_innerShadow_1411_11"/>
<feColorMatrix in="SourceAlpha" type="matrix" values="0 0 0 0 0 0 0 0 0 0 0 0 0 0 0 0 0 0 127 0" result="hardAlpha"/>
<feOffset dy="-0.5"/>
<feGaussianBlur stdDeviation="1"/>
<feComposite in2="hardAlpha" operator="arithmetic" k2="-1" k3="1"/>
<feColorMatrix type="matrix" values="0 0 0 0 1 0 0 0 0 1 0 0 0 0 1 0 0 0 0.42 0"/>
<feBlend mode="normal" in2="effect2_innerShadow_1411_11" result="effect3_innerShadow_1411_11"/>
</filter>
</defs>
</svg>
