<svg width="132" height="31" viewBox="0 0 132 31" fill="none" xmlns="http://www.w3.org/2000/svg">
<path d="M19.2687 25.28L20.4323 22.6205H21.4838L24.0994 14.3926L26.2603 16.3041L23.4366 25.28H19.2687Z" fill="white"/>
<path d="M6.84705 22.6205H18.0318L16.9514 25.28H4.88175L3.44652 20.6071L6.27227 20.7491L6.84705 22.6205Z" fill="white"/>
<path d="M14.1596 0L17.8662 2.38311L15.5391 4.08687L14.165 3.18713L6.85404 8.03461L6.1476 5.25042L14.1596 0Z" fill="white"/>
<path d="M19.7361 3.58821L28.425 9.3858L26.9319 14.1432L24.7835 12.107L25.2865 10.5044L17.409 5.25042L19.7361 3.58821Z" fill="white"/>
<path d="M3.12578 10.5045L5.56583 18.5481H2.78164L0 9.38568L4.36073 6.49517L5.13464 9.17292L3.12578 10.5045Z" fill="white"/>
<circle cx="25.4708" cy="14.2257" r="0.498662" fill="white"/>
<path d="M39.7284 9.1676H43.3698C43.89 9.1676 44.3898 9.2186 44.8692 9.3206C45.3588 9.4226 45.7872 9.596 46.1544 9.8408C46.5216 10.0754 46.8123 10.3967 47.0265 10.8047C47.2509 11.2025 47.3631 11.7023 47.3631 12.3041C47.3631 12.9875 47.2458 13.5383 47.0112 13.9565C46.7766 14.3747 46.4604 14.7011 46.0626 14.9357C45.6648 15.1601 45.2007 15.3131 44.6703 15.3947C44.1501 15.4763 43.6044 15.5171 43.0332 15.5171H41.6562V20H39.7284V9.1676ZM42.819 13.8647C43.0944 13.8647 43.38 13.8545 43.6758 13.8341C43.9716 13.8137 44.2419 13.7525 44.4867 13.6505C44.7417 13.5485 44.9457 13.3955 45.0987 13.1915C45.2619 12.9875 45.3435 12.7019 45.3435 12.3347C45.3435 11.9981 45.2721 11.7329 45.1293 11.5391C44.9865 11.3351 44.8029 11.1821 44.5785 11.0801C44.3541 10.9679 44.1042 10.8965 43.8288 10.8659C43.5534 10.8353 43.2882 10.82 43.0332 10.82H41.6562V13.8647H42.819ZM50.3822 16.9706C50.4434 17.5214 50.6576 17.9498 51.0248 18.2558C51.392 18.5618 51.8357 18.7148 52.3559 18.7148C52.8149 18.7148 53.1974 18.623 53.5034 18.4394C53.8196 18.2456 54.095 18.0059 54.3296 17.7203L55.6454 18.7148C55.217 19.2452 54.7376 19.6226 54.2072 19.847C53.6768 20.0714 53.1209 20.1836 52.5395 20.1836C51.9887 20.1836 51.4685 20.0918 50.9789 19.9082C50.4893 19.7246 50.066 19.4645 49.709 19.1279C49.352 18.7913 49.0664 18.3884 48.8522 17.9192C48.6482 17.4398 48.5462 16.9094 48.5462 16.328C48.5462 15.7466 48.6482 15.2213 48.8522 14.7521C49.0664 14.2727 49.352 13.8647 49.709 13.5281C50.066 13.1915 50.4893 12.9314 50.9789 12.7478C51.4685 12.5642 51.9887 12.4724 52.5395 12.4724C53.0495 12.4724 53.5136 12.5642 53.9318 12.7478C54.3602 12.9212 54.7223 13.1762 55.0181 13.5128C55.3241 13.8494 55.5587 14.2676 55.7219 14.7674C55.8953 15.257 55.982 15.8231 55.982 16.4657V16.9706H50.3822ZM54.146 15.5936C54.1358 15.053 53.9675 14.6297 53.6411 14.3237C53.3147 14.0075 52.8608 13.8494 52.2794 13.8494C51.7286 13.8494 51.29 14.0075 50.9636 14.3237C50.6474 14.6399 50.4536 15.0632 50.3822 15.5936H54.146ZM57.6989 12.656H59.4431V13.8341H59.4737C59.6471 13.4669 59.9123 13.1507 60.2693 12.8855C60.6263 12.6101 61.1108 12.4724 61.7228 12.4724C62.2124 12.4724 62.6255 12.554 62.9621 12.7172C63.3089 12.8804 63.5894 13.0946 63.8036 13.3598C64.0178 13.625 64.1708 13.931 64.2626 14.2778C64.3544 14.6246 64.4003 14.9867 64.4003 15.3641V20H62.5643V16.2821C62.5643 16.0781 62.5541 15.8537 62.5337 15.6089C62.5133 15.3539 62.4572 15.1193 62.3654 14.9051C62.2838 14.6807 62.1512 14.4971 61.9676 14.3543C61.784 14.2013 61.5341 14.1248 61.2179 14.1248C60.9119 14.1248 60.6518 14.1758 60.4376 14.2778C60.2336 14.3798 60.0602 14.5175 59.9174 14.6909C59.7848 14.8643 59.6879 15.0632 59.6267 15.2876C59.5655 15.512 59.5349 15.7466 59.5349 15.9914V20H57.6989V12.656ZM65.6277 14.2166V12.656H67.1424V10.5293H68.9784V12.656H70.998V14.2166H68.9784V17.4296C68.9784 17.7968 69.0447 18.0875 69.1773 18.3017C69.3201 18.5159 69.5955 18.623 70.0035 18.623C70.1667 18.623 70.3452 18.6077 70.539 18.5771C70.7328 18.5363 70.8858 18.4751 70.998 18.3935V19.9388C70.8042 20.0306 70.5645 20.0918 70.2789 20.1224C70.0035 20.1632 69.7587 20.1836 69.5445 20.1836C69.0549 20.1836 68.652 20.1275 68.3358 20.0153C68.0298 19.9133 67.785 19.7552 67.6014 19.541C67.428 19.3166 67.3056 19.0412 67.2342 18.7148C67.173 18.3884 67.1424 18.011 67.1424 17.5826V14.2166H65.6277ZM77.0211 18.9902H76.9752C76.71 19.4084 76.3734 19.7144 75.9654 19.9082C75.5574 20.0918 75.1086 20.1836 74.619 20.1836C74.2824 20.1836 73.9509 20.1377 73.6245 20.0459C73.3083 19.9541 73.0227 19.8164 72.7677 19.6328C72.5229 19.4492 72.324 19.2197 72.171 18.9443C72.018 18.6689 71.9415 18.3476 71.9415 17.9804C71.9415 17.5826 72.0129 17.246 72.1557 16.9706C72.2985 16.685 72.4872 16.4504 72.7218 16.2668C72.9666 16.073 73.2471 15.92 73.5633 15.8078C73.8795 15.6956 74.2059 15.614 74.5425 15.563C74.8893 15.5018 75.2361 15.4661 75.5829 15.4559C75.9297 15.4355 76.2561 15.4253 76.5621 15.4253H77.0211V15.2264C77.0211 14.7674 76.863 14.4257 76.5468 14.2013C76.2306 13.9667 75.8277 13.8494 75.3381 13.8494C74.9505 13.8494 74.5884 13.9208 74.2518 14.0636C73.9152 14.1962 73.6245 14.3798 73.3797 14.6144L72.4158 13.6505C72.8238 13.2323 73.2981 12.9314 73.8387 12.7478C74.3895 12.5642 74.9556 12.4724 75.537 12.4724C76.0572 12.4724 76.4958 12.5336 76.8528 12.656C77.2098 12.7682 77.5056 12.9161 77.7402 13.0997C77.9748 13.2833 78.1533 13.4975 78.2757 13.7423C78.4083 13.9769 78.5001 14.2166 78.5511 14.4614C78.6123 14.7062 78.648 14.9459 78.6582 15.1805C78.6684 15.4049 78.6735 15.6038 78.6735 15.7772V20H77.0211V18.9902ZM76.914 16.7105H76.5315C76.2765 16.7105 75.9909 16.7207 75.6747 16.7411C75.3585 16.7615 75.0576 16.8125 74.772 16.8941C74.4966 16.9655 74.262 17.0777 74.0682 17.2307C73.8744 17.3735 73.7775 17.5775 73.7775 17.8427C73.7775 18.0161 73.8132 18.164 73.8846 18.2864C73.9662 18.3986 74.0682 18.4955 74.1906 18.5771C74.313 18.6587 74.4507 18.7199 74.6037 18.7607C74.7567 18.7913 74.9097 18.8066 75.0627 18.8066C75.6951 18.8066 76.1592 18.6587 76.455 18.3629C76.761 18.0569 76.914 17.6438 76.914 17.1236V16.7105ZM81.3068 14.2166H79.7921V12.656H81.3068V11.6156C81.3068 11.1056 81.3425 10.6466 81.4139 10.2386C81.4853 9.8204 81.6179 9.4634 81.8117 9.1676C82.0157 8.8718 82.2962 8.6474 82.6532 8.4944C83.0102 8.3312 83.4743 8.2496 84.0455 8.2496C84.4637 8.2496 84.8513 8.2853 85.2083 8.3567L85.0859 9.9173C84.9533 9.8867 84.8258 9.8612 84.7034 9.8408C84.581 9.8204 84.4535 9.8102 84.3209 9.8102C84.0659 9.8102 83.8619 9.851 83.7089 9.9326C83.5559 10.0142 83.4335 10.1264 83.3417 10.2692C83.2601 10.4018 83.204 10.5599 83.1734 10.7435C83.153 10.9271 83.1428 11.1209 83.1428 11.3249V12.656H84.8411V14.2166H83.1428V20H81.3068V14.2166ZM85.6606 16.328C85.6606 15.7466 85.7626 15.2213 85.9666 14.7521C86.1808 14.2727 86.4664 13.8647 86.8234 13.5281C87.1804 13.1915 87.6037 12.9314 88.0933 12.7478C88.5829 12.5642 89.1031 12.4724 89.6539 12.4724C90.2047 12.4724 90.7249 12.5642 91.2145 12.7478C91.7041 12.9314 92.1274 13.1915 92.4844 13.5281C92.8414 13.8647 93.1219 14.2727 93.3259 14.7521C93.5401 15.2213 93.6472 15.7466 93.6472 16.328C93.6472 16.9094 93.5401 17.4398 93.3259 17.9192C93.1219 18.3884 92.8414 18.7913 92.4844 19.1279C92.1274 19.4645 91.7041 19.7246 91.2145 19.9082C90.7249 20.0918 90.2047 20.1836 89.6539 20.1836C89.1031 20.1836 88.5829 20.0918 88.0933 19.9082C87.6037 19.7246 87.1804 19.4645 86.8234 19.1279C86.4664 18.7913 86.1808 18.3884 85.9666 17.9192C85.7626 17.4398 85.6606 16.9094 85.6606 16.328ZM87.4966 16.328C87.4966 16.6136 87.5425 16.889 87.6343 17.1542C87.7363 17.4194 87.8791 17.654 88.0627 17.858C88.2565 18.062 88.486 18.2252 88.7512 18.3476C89.0164 18.47 89.3173 18.5312 89.6539 18.5312C89.9905 18.5312 90.2914 18.47 90.5566 18.3476C90.8218 18.2252 91.0462 18.062 91.2298 17.858C91.4236 17.654 91.5664 17.4194 91.6582 17.1542C91.7602 16.889 91.8112 16.6136 91.8112 16.328C91.8112 16.0424 91.7602 15.767 91.6582 15.5018C91.5664 15.2366 91.4236 15.002 91.2298 14.798C91.0462 14.594 90.8218 14.4308 90.5566 14.3084C90.2914 14.186 89.9905 14.1248 89.6539 14.1248C89.3173 14.1248 89.0164 14.186 88.7512 14.3084C88.486 14.4308 88.2565 14.594 88.0627 14.798C87.8791 15.002 87.7363 15.2366 87.6343 15.5018C87.5425 15.767 87.4966 16.0424 87.4966 16.328ZM97.2634 16.0526L94.7236 12.656H96.9574L98.4262 14.8592L100.017 12.656H102.114L99.6043 16.0526L102.557 20H100.323L98.4109 17.3684L96.4831 20H94.3105L97.2634 16.0526Z" fill="white"/>
</svg>
